HIERARCHY
ROOT joint_Root
{
	OFFSET 0.0 0.0 0.0
	CHANNELS 6 Xposition Yposition Zposition Zrotation Xrotation Yrotation 
	JOINT Hips
	{
		OFFSET 4.5925 91.4895 -427.239
		CHANNELS 6 Xposition Yposition Zposition Zrotation Xrotation Yrotation 
		JOINT Spine
		{
			OFFSET 15.7357 0.0 0.0
			CHANNELS 6 Xposition Yposition Zposition Zrotation Xrotation Yrotation 
			JOINT Chest
			{
				OFFSET 8.98455 -0.406207 0.0
				CHANNELS 6 Xposition Yposition Zposition Zrotation Xrotation Yrotation 
				JOINT Neck
				{
					OFFSET 16.3773 0.0 0.0
					CHANNELS 6 Xposition Yposition Zposition Zrotation Xrotation Yrotation 
					JOINT Head
					{
						OFFSET 6.45672 0.0 0.0
						CHANNELS 6 Xposition Yposition Zposition Zrotation Xrotation Yrotation 
						End Site
						{
							OFFSET 0.0 0.0 0.0
						}
					}
				}
				JOINT Shoulder_L
				{
					OFFSET 12.9942 -0.242716 4.98039
					CHANNELS 6 Xposition Yposition Zposition Zrotation Xrotation Yrotation 
					JOINT UpperArm_L
					{
						OFFSET 5.34809 0.0 0.0
						CHANNELS 6 Xposition Yposition Zposition Zrotation Xrotation Yrotation 
						JOINT LowerArm_L
						{
							OFFSET 24.3286 1.87007e-05 0.0
							CHANNELS 6 Xposition Yposition Zposition Zrotation Xrotation Yrotation 
							JOINT Hand_L
							{
								OFFSET 22.2916 0.0 0.0
								CHANNELS 6 Xposition Yposition Zposition Zrotation Xrotation Yrotation 
								End Site
								{
									OFFSET 0.0 0.0 0.0
								}
							}
						}
					}
				}
				JOINT Shoulder_R
				{
					OFFSET 12.9945 -0.242716 -4.98039
					CHANNELS 6 Xposition Yposition Zposition Zrotation Xrotation Yrotation 
					JOINT UpperArm_R
					{
						OFFSET -5.34813 0.0 0.0
						CHANNELS 6 Xposition Yposition Zposition Zrotation Xrotation Yrotation 
						JOINT LowerArm_R
						{
							OFFSET -24.3289 0.000322201 0.0
							CHANNELS 6 Xposition Yposition Zposition Zrotation Xrotation Yrotation 
							JOINT Hand_R
							{
								OFFSET -22.2915 -0.000108084 0.0
								CHANNELS 6 Xposition Yposition Zposition Zrotation Xrotation Yrotation 
								End Site
								{
									OFFSET 0.0 0.0 0.0
								}
							}
						}
					}
				}
			}
		}
		JOINT UpperLeg_L
		{
			OFFSET -2.19248 -6.46944 0.0
			CHANNELS 6 Xposition Yposition Zposition Zrotation Xrotation Yrotation 
			JOINT LowerLeg_L
			{
				OFFSET 39.0811 0.0 -1.23785e-05
				CHANNELS 6 Xposition Yposition Zposition Zrotation Xrotation Yrotation 
				JOINT Foot_L
				{
					OFFSET 40.9854 0.0 -1.26872e-05
					CHANNELS 6 Xposition Yposition Zposition Zrotation Xrotation Yrotation 
					JOINT Toes_L
					{
						OFFSET 11.7543 0.0 0.0
						CHANNELS 6 Xposition Yposition Zposition Zrotation Xrotation Yrotation 
						End Site
						{
							OFFSET 0.0 0.0 0.0
						}
					}
				}
			}
		}
		JOINT UpperLeg_R
		{
			OFFSET -2.19251 6.46944 0.0
			CHANNELS 6 Xposition Yposition Zposition Zrotation Xrotation Yrotation 
			JOINT LowerLeg_R
			{
				OFFSET -39.0811 -0.00228153 -0.0401928
				CHANNELS 6 Xposition Yposition Zposition Zrotation Xrotation Yrotation 
				JOINT Foot_R
				{
					OFFSET -40.9854 0.0 0.0
					CHANNELS 6 Xposition Yposition Zposition Zrotation Xrotation Yrotation 
					JOINT Toes_R
					{
						OFFSET -11.7543 0.0 0.0
						CHANNELS 6 Xposition Yposition Zposition Zrotation Xrotation Yrotation 
						End Site
						{
							OFFSET 0.0 0.0 0.0
						}
					}
				}
			}
		}
	}
}
MOTION
Frames:	4
Frame Time:	0.0333333
0.000000 0.000000 0.000000 0.000000 0.000000 -0.000000 -1.077600 90.862200 1.064530 89.589100 -3.524840 9.261140 15.735700 0.000005 -0.000001 85.902100 81.778300 -86.106500 8.984550 -0.406207 -0.000000 8.634620 -1.170850 -0.319912 16.377300 -0.000001 -0.000001 2.435770 -2.894450 2.087720 6.456720 -0.000001 -0.000000 -11.288300 -2.654250 5.260250 12.994200 -0.242716 4.980390 -92.042100 7.171800 -74.060200 5.348090 -0.000007 -0.000001 -57.605400 39.060100 -19.739400 24.328600 0.000019 0.000005 9.668180 23.336400 -23.270700 22.291600 -0.000001 0.000005 9.085230 5.301280 0.036632 12.994500 -0.242716 -4.980390 88.230800 12.254900 -81.720300 -5.348130 -0.000001 -0.000004 -60.024000 33.412000 -13.083400 -24.328900 0.000322 -0.000009 1.750330 4.499400 -21.294300 -22.291500 -0.000108 -0.000004 14.066400 5.432940 -4.040160 -2.192480 -6.469440 -0.000000 -174.308000 -14.179600 0.762839 39.081100 -0.000007 -0.000012 -0.193080 0.337840 29.748900 40.985400 -0.000006 -0.000013 0.044864 5.332160 -70.782900 11.754300 -0.000000 0.000003 -0.000162 -0.001552 -16.636400 -2.192510 6.469440 -0.000001 174.104000 21.470800 -178.340000 -39.081100 -0.002282 -0.040193 -0.203633 0.368709 29.303400 -40.985400 0.000008 0.000006 3.951580 14.579700 -71.342200 -11.754300 -0.000006 -0.000006 -0.002140 -0.030458 -17.811600
0.000000 0.000000 0.000000 0.000000 0.000000 -0.000000 -1.087260 90.853900 1.032290 89.598800 -3.530620 9.454420 15.735700 0.000005 -0.000001 85.899600 81.695800 -86.120700 8.984550 -0.406207 -0.000000 8.799020 -1.183570 -0.350710 16.377300 -0.000001 -0.000001 2.889630 -2.872580 2.053490 6.456720 -0.000001 -0.000000 -10.700300 -2.684220 5.349140 12.994200 -0.242716 4.980390 -92.080200 7.129260 -73.687400 5.348090 -0.000007 -0.000001 -57.860700 36.795100 -19.239800 24.328600 0.000019 0.000005 10.500100 24.015800 -24.483900 22.291600 -0.000001 0.000005 9.004550 5.310790 -0.232387 12.994500 -0.242716 -4.980390 88.158300 12.170100 -81.327600 -5.348130 -0.000001 -0.000004 -59.993200 30.921900 -12.778600 -24.328900 0.000322 -0.000009 1.815650 4.481120 -22.095400 -22.291500 -0.000108 -0.000004 14.348800 5.439540 -4.268950 -2.192480 -6.469440 -0.000000 -174.261000 -14.215700 0.913738 39.081100 -0.000007 -0.000012 -0.191036 0.333551 29.801600 40.985400 -0.000006 -0.000013 0.046352 5.333810 -70.783900 11.754300 -0.000000 0.000003 -0.000152 -0.001470 -16.633400 -2.192510 6.469440 -0.000001 174.050000 21.420900 -178.195000 -39.081100 -0.002282 -0.040193 -0.201675 0.364261 29.367800 -40.985400 0.000008 0.000006 3.961810 14.537500 -71.354900 -11.754300 -0.000006 -0.000006 -0.002026 -0.029042 -17.754000
0.000000 0.000000 0.000000 0.000000 0.000000 -0.000000 -1.094130 90.848800 0.976329 89.596900 -3.568300 9.597940 15.735700 0.000005 -0.000001 86.023300 81.635800 -86.261300 8.984550 -0.406207 -0.000000 8.921030 -1.156530 -0.385387 16.377300 -0.000001 -0.000001 3.360150 -2.887200 2.069660 6.456720 -0.000001 -0.000000 -10.038100 -2.662130 5.369490 12.994200 -0.242716 4.980390 -92.126100 7.082600 -73.243600 5.348090 -0.000007 -0.000001 -57.770800 34.069600 -18.802000 24.328600 0.000019 0.000005 11.601900 24.732300 -26.137500 22.291600 -0.000001 0.000005 8.801110 5.311800 -0.261303 12.994500 -0.242716 -4.980390 88.069500 12.101900 -80.866300 -5.348130 -0.000001 -0.000004 -59.653200 27.996800 -12.435400 -24.328900 0.000322 -0.000009 1.774780 4.110260 -23.393600 -22.291500 -0.000108 -0.000004 14.720800 5.439940 -4.282710 -2.192480 -6.469440 -0.000000 -174.214000 -14.220100 1.005660 39.081100 -0.000007 -0.000012 -0.192194 0.334913 29.850200 40.985400 -0.000006 -0.000013 0.048830 5.356510 -70.774600 11.754300 -0.000000 0.000003 -0.000159 -0.001528 -16.635500 -2.192510 6.469440 -0.000001 174.026000 21.379800 -178.116000 -39.081100 -0.002282 -0.040193 -0.202331 0.364592 29.423700 -40.985400 0.000008 0.000006 3.981280 14.529400 -71.347000 -11.754300 -0.000006 -0.000006 -0.002110 -0.030082 -17.796300
0.000000 0.000000 0.000000 0.000000 0.000000 -0.000000 -1.096670 90.848700 0.918961 89.615300 -3.639750 9.740310 15.735700 0.000005 -0.000001 86.224800 81.580500 -86.491600 8.984550 -0.406207 -0.000000 9.035130 -1.105820 -0.445828 16.377300 -0.000001 -0.000001 3.945020 -2.898710 2.061380 6.456720 -0.000001 -0.000000 -9.364260 -2.663420 5.425510 12.994200 -0.242716 4.980390 -92.122200 6.919470 -72.902700 5.348090 -0.000007 -0.000001 -57.234200 31.065600 -18.464500 24.328600 0.000019 0.000005 12.636900 24.936900 -28.002000 22.291600 -0.000001 0.000005 8.405780 5.314730 -0.345097 12.994500 -0.242716 -4.980390 88.003400 11.933300 -80.429900 -5.348130 -0.000001 -0.000004 -59.116100 24.480900 -12.179200 -24.328900 0.000322 -0.000009 1.632620 3.521970 -24.905000 -22.291500 -0.000108 -0.000004 14.908900 5.443440 -4.406690 -2.192480 -6.469440 -0.000000 -174.174000 -14.304100 1.121540 39.081100 -0.000007 -0.000012 -0.193290 0.336708 29.858700 40.985400 -0.000006 -0.000013 0.060145 5.402650 -70.745300 11.754300 -0.000000 0.000003 -0.000172 -0.001631 -16.639300 -2.192510 6.469440 -0.000001 173.986000 21.305200 -178.033000 -39.081100 -0.002282 -0.040193 -0.203066 0.365332 29.461600 -40.985400 0.000008 0.000006 3.997950 14.531100 -71.331400 -11.754300 -0.000006 -0.000006 -0.002258 -0.031897 -17.870100
